<svg xmlns="http://www.w3.org/2000/svg" viewBox="0 0 64 64" role="img" aria-label="内陆回声印记">
  <rect width="64" height="64" rx="7" fill="#101a1d"/>
  <path d="M51 48c-6 7-16 10-26 8C13 53 6 43 7 31 8 18 18 8 31 7c13 0 24 9 26 22 1 7-1 13-4 17" fill="none" stroke="#d8b45b" stroke-width="4.6" stroke-linecap="square"/>
  <path d="M45 42c-5 5-12 7-19 5-8-2-13-9-12-17 1-9 8-15 17-16 9 0 17 6 19 15 1 5-1 9-3 12" fill="none" stroke="#d8b45b" stroke-width="3.6" stroke-linecap="square" opacity=".88"/>
  <path d="M39 37c-3 3-7 4-11 3-5-1-8-5-8-10 1-5 5-9 10-10 6 0 10 4 11 9 1 3 0 6-1 7" fill="none" stroke="#d8b45b" stroke-width="3.2" stroke-linecap="square" opacity=".72"/>
  <path d="m32 27 5 5-5 5-5-5Z" fill="#bd704f"/>
</svg>
